<svg width="747" height="27" viewBox="0 0 747 27" fill="none" xmlns="http://www.w3.org/2000/svg">
<line x1="46.5" y1="3.5" x2="46.5" y2="23.5" stroke="#FF0000" stroke-width="5"/>
<line x1="40.5" y1="3.5" x2="40.5" y2="23.5" stroke="#FF0000" stroke-width="5"/>
<line x1="21" y1="3.5" x2="21" y2="23.5" stroke="#FF0000" stroke-width="4"/>
<line x1="28" y1="3.5" x2="28" y2="23.5" stroke="#FF0000" stroke-width="2"/>
<path d="M13 3.5V13.5L13 23.5" stroke="#FF0000" stroke-opacity="0.8" stroke-width="7"/>
<path d="M4 3.5L4 13.5V23.5" stroke="#FF0000" stroke-opacity="0.5" stroke-width="7"/>
<line x1="33.5" y1="3.5" x2="33.5" y2="23.5" stroke="#FF0000" stroke-width="5"/>
<path d="M93.64 7.49L89.932 20H87.61L84.982 10.532L82.192 20L79.888 20.018L76.342 7.49H78.52L81.112 17.678L83.92 7.49H86.224L88.834 17.624L91.444 7.49H93.64ZM97.3844 9.146V12.818H101.704V14.492H97.3844V18.326H102.244V20H95.3324V7.472H102.244V9.146H97.3844ZM111.468 13.574C112.14 13.694 112.71 14.048 113.178 14.636C113.646 15.224 113.88 15.89 113.88 16.634C113.88 17.27 113.712 17.846 113.376 18.362C113.052 18.866 112.578 19.268 111.954 19.568C111.33 19.856 110.604 20 109.776 20H104.772V7.49H109.542C110.394 7.49 111.126 7.634 111.738 7.922C112.35 8.21 112.812 8.6 113.124 9.092C113.436 9.572 113.592 10.112 113.592 10.712C113.592 11.432 113.4 12.032 113.016 12.512C112.632 12.992 112.116 13.346 111.468 13.574ZM106.824 12.746H109.362C110.034 12.746 110.556 12.596 110.928 12.296C111.312 11.984 111.504 11.54 111.504 10.964C111.504 10.4 111.312 9.962 110.928 9.65C110.556 9.326 110.034 9.164 109.362 9.164H106.824V12.746ZM109.596 18.326C110.292 18.326 110.838 18.158 111.234 17.822C111.63 17.486 111.828 17.018 111.828 16.418C111.828 15.806 111.618 15.32 111.198 14.96C110.778 14.6 110.22 14.42 109.524 14.42H106.824V18.326H109.596ZM124.872 7.49C126.204 7.49 127.368 7.748 128.364 8.264C129.372 8.768 130.146 9.5 130.686 10.46C131.238 11.408 131.514 12.518 131.514 13.79C131.514 15.062 131.238 16.166 130.686 17.102C130.146 18.038 129.372 18.758 128.364 19.262C127.368 19.754 126.204 20 124.872 20H120.786V7.49H124.872ZM124.872 18.326C126.336 18.326 127.458 17.93 128.238 17.138C129.018 16.346 129.408 15.23 129.408 13.79C129.408 12.338 129.018 11.204 128.238 10.388C127.458 9.572 126.336 9.164 124.872 9.164H122.838V18.326H124.872ZM135.599 9.146V12.818H139.919V14.492H135.599V18.326H140.459V20H133.547V7.472H140.459V9.146H135.599ZM153.769 7.49L149.071 20H146.695L141.979 7.49H144.175L147.883 17.894L151.609 7.49H153.769ZM157.537 9.146V12.818H161.857V14.492H157.537V18.326H162.397V20H155.485V7.472H162.397V9.146H157.537ZM166.976 18.344H171.206V20H164.924V7.49H166.976V18.344ZM178.628 20.126C177.464 20.126 176.39 19.856 175.406 19.316C174.434 18.764 173.66 18.002 173.084 17.03C172.52 16.046 172.238 14.942 172.238 13.718C172.238 12.494 172.52 11.396 173.084 10.424C173.66 9.452 174.434 8.696 175.406 8.156C176.39 7.604 177.464 7.328 178.628 7.328C179.804 7.328 180.878 7.604 181.85 8.156C182.834 8.696 183.608 9.452 184.172 10.424C184.736 11.396 185.018 12.494 185.018 13.718C185.018 14.942 184.736 16.046 184.172 17.03C183.608 18.002 182.834 18.764 181.85 19.316C180.878 19.856 179.804 20.126 178.628 20.126ZM178.628 18.344C179.456 18.344 180.194 18.158 180.842 17.786C181.49 17.402 181.994 16.862 182.354 16.166C182.726 15.458 182.912 14.642 182.912 13.718C182.912 12.794 182.726 11.984 182.354 11.288C181.994 10.592 181.49 10.058 180.842 9.686C180.194 9.314 179.456 9.128 178.628 9.128C177.8 9.128 177.062 9.314 176.414 9.686C175.766 10.058 175.256 10.592 174.884 11.288C174.524 11.984 174.344 12.794 174.344 13.718C174.344 14.642 174.524 15.458 174.884 16.166C175.256 16.862 175.766 17.402 176.414 17.786C177.062 18.158 177.8 18.344 178.628 18.344ZM195.786 11.216C195.786 11.852 195.636 12.452 195.336 13.016C195.036 13.58 194.556 14.042 193.896 14.402C193.236 14.75 192.39 14.924 191.358 14.924H189.09V20H187.038V7.49H191.358C192.318 7.49 193.128 7.658 193.788 7.994C194.46 8.318 194.958 8.762 195.282 9.326C195.618 9.89 195.786 10.52 195.786 11.216ZM191.358 13.25C192.138 13.25 192.72 13.076 193.104 12.728C193.488 12.368 193.68 11.864 193.68 11.216C193.68 9.848 192.906 9.164 191.358 9.164H189.09V13.25H191.358ZM199.795 9.146V12.818H204.115V14.492H199.795V18.326H204.655V20H197.743V7.472H204.655V9.146H199.795ZM213.68 20L210.8 14.996H209.234V20H207.182V7.49H211.502C212.462 7.49 213.272 7.658 213.932 7.994C214.604 8.33 215.102 8.78 215.426 9.344C215.762 9.908 215.93 10.538 215.93 11.234C215.93 12.05 215.69 12.794 215.21 13.466C214.742 14.126 214.016 14.576 213.032 14.816L216.128 20H213.68ZM209.234 13.358H211.502C212.27 13.358 212.846 13.166 213.23 12.782C213.626 12.398 213.824 11.882 213.824 11.234C213.824 10.586 213.632 10.082 213.248 9.722C212.864 9.35 212.282 9.164 211.502 9.164H209.234V13.358Z" fill="white"/>
<path d="M260.098 11.216C260.098 11.852 259.948 12.452 259.648 13.016C259.348 13.58 258.868 14.042 258.208 14.402C257.548 14.75 256.702 14.924 255.67 14.924H253.402V20H251.35V7.49H255.67C256.63 7.49 257.44 7.658 258.1 7.994C258.772 8.318 259.27 8.762 259.594 9.326C259.93 9.89 260.098 10.52 260.098 11.216ZM255.67 13.25C256.45 13.25 257.032 13.076 257.416 12.728C257.8 12.368 257.992 11.864 257.992 11.216C257.992 9.848 257.218 9.164 255.67 9.164H253.402V13.25H255.67ZM272.045 7.49V20H269.993V14.528H264.107V20H262.055V7.49H264.107V12.854H269.993V7.49H272.045ZM280.452 20.126C279.288 20.126 278.214 19.856 277.23 19.316C276.258 18.764 275.484 18.002 274.908 17.03C274.344 16.046 274.062 14.942 274.062 13.718C274.062 12.494 274.344 11.396 274.908 10.424C275.484 9.452 276.258 8.696 277.23 8.156C278.214 7.604 279.288 7.328 280.452 7.328C281.628 7.328 282.702 7.604 283.674 8.156C284.658 8.696 285.432 9.452 285.996 10.424C286.56 11.396 286.842 12.494 286.842 13.718C286.842 14.942 286.56 16.046 285.996 17.03C285.432 18.002 284.658 18.764 283.674 19.316C282.702 19.856 281.628 20.126 280.452 20.126ZM280.452 18.344C281.28 18.344 282.018 18.158 282.666 17.786C283.314 17.402 283.818 16.862 284.178 16.166C284.55 15.458 284.736 14.642 284.736 13.718C284.736 12.794 284.55 11.984 284.178 11.288C283.818 10.592 283.314 10.058 282.666 9.686C282.018 9.314 281.28 9.128 280.452 9.128C279.624 9.128 278.886 9.314 278.238 9.686C277.59 10.058 277.08 10.592 276.708 11.288C276.348 11.984 276.168 12.794 276.168 13.718C276.168 14.642 276.348 15.458 276.708 16.166C277.08 16.862 277.59 17.402 278.238 17.786C278.886 18.158 279.624 18.344 280.452 18.344ZM296.944 7.49V9.164H293.614V20H291.562V9.164H288.214V7.49H296.944ZM304.728 20.126C303.564 20.126 302.49 19.856 301.506 19.316C300.534 18.764 299.76 18.002 299.184 17.03C298.62 16.046 298.338 14.942 298.338 13.718C298.338 12.494 298.62 11.396 299.184 10.424C299.76 9.452 300.534 8.696 301.506 8.156C302.49 7.604 303.564 7.328 304.728 7.328C305.904 7.328 306.978 7.604 307.95 8.156C308.934 8.696 309.708 9.452 310.272 10.424C310.836 11.396 311.118 12.494 311.118 13.718C311.118 14.942 310.836 16.046 310.272 17.03C309.708 18.002 308.934 18.764 307.95 19.316C306.978 19.856 305.904 20.126 304.728 20.126ZM304.728 18.344C305.556 18.344 306.294 18.158 306.942 17.786C307.59 17.402 308.094 16.862 308.454 16.166C308.826 15.458 309.012 14.642 309.012 13.718C309.012 12.794 308.826 11.984 308.454 11.288C308.094 10.592 307.59 10.058 306.942 9.686C306.294 9.314 305.556 9.128 304.728 9.128C303.9 9.128 303.162 9.314 302.514 9.686C301.866 10.058 301.356 10.592 300.984 11.288C300.624 11.984 300.444 12.794 300.444 13.718C300.444 14.642 300.624 15.458 300.984 16.166C301.356 16.862 301.866 17.402 302.514 17.786C303.162 18.158 303.9 18.344 304.728 18.344ZM322.191 11.09C321.867 10.466 321.417 9.998 320.841 9.686C320.265 9.362 319.599 9.2 318.843 9.2C318.015 9.2 317.277 9.386 316.629 9.758C315.981 10.13 315.471 10.658 315.099 11.342C314.739 12.026 314.559 12.818 314.559 13.718C314.559 14.618 314.739 15.416 315.099 16.112C315.471 16.796 315.981 17.324 316.629 17.696C317.277 18.068 318.015 18.254 318.843 18.254C319.959 18.254 320.865 17.942 321.561 17.318C322.257 16.694 322.683 15.848 322.839 14.78H318.141V13.142H325.035V14.744C324.903 15.716 324.555 16.61 323.991 17.426C323.439 18.242 322.713 18.896 321.813 19.388C320.925 19.868 319.935 20.108 318.843 20.108C317.667 20.108 316.593 19.838 315.621 19.298C314.649 18.746 313.875 17.984 313.299 17.012C312.735 16.04 312.453 14.942 312.453 13.718C312.453 12.494 312.735 11.396 313.299 10.424C313.875 9.452 314.649 8.696 315.621 8.156C316.605 7.604 317.679 7.328 318.843 7.328C320.175 7.328 321.357 7.658 322.389 8.318C323.433 8.966 324.189 9.89 324.657 11.09H322.191ZM333.557 20L330.677 14.996H329.111V20H327.059V7.49H331.379C332.339 7.49 333.149 7.658 333.809 7.994C334.481 8.33 334.979 8.78 335.303 9.344C335.639 9.908 335.807 10.538 335.807 11.234C335.807 12.05 335.567 12.794 335.087 13.466C334.619 14.126 333.893 14.576 332.909 14.816L336.005 20H333.557ZM329.111 13.358H331.379C332.147 13.358 332.723 13.166 333.107 12.782C333.503 12.398 333.701 11.882 333.701 11.234C333.701 10.586 333.509 10.082 333.125 9.722C332.741 9.35 332.159 9.164 331.379 9.164H329.111V13.358ZM345.974 17.444H340.736L339.836 20H337.694L342.176 7.472H344.552L349.034 20H346.874L345.974 17.444ZM345.398 15.77L343.364 9.956L341.312 15.77H345.398ZM359.731 11.216C359.731 11.852 359.581 12.452 359.281 13.016C358.981 13.58 358.501 14.042 357.841 14.402C357.181 14.75 356.335 14.924 355.303 14.924H353.035V20H350.983V7.49H355.303C356.263 7.49 357.073 7.658 357.733 7.994C358.405 8.318 358.903 8.762 359.227 9.326C359.563 9.89 359.731 10.52 359.731 11.216ZM355.303 13.25C356.083 13.25 356.665 13.076 357.049 12.728C357.433 12.368 357.625 11.864 357.625 11.216C357.625 9.848 356.851 9.164 355.303 9.164H353.035V13.25H355.303ZM371.678 7.49V20H369.626V14.528H363.74V20H361.688V7.49H363.74V12.854H369.626V7.49H371.678ZM376.431 9.146V12.818H380.751V14.492H376.431V18.326H381.291V20H374.379V7.472H381.291V9.146H376.431ZM390.317 20L387.437 14.996H385.871V20H383.819V7.49H388.139C389.099 7.49 389.909 7.658 390.569 7.994C391.241 8.33 391.739 8.78 392.063 9.344C392.399 9.908 392.567 10.538 392.567 11.234C392.567 12.05 392.327 12.794 391.847 13.466C391.379 14.126 390.653 14.576 389.669 14.816L392.765 20H390.317ZM385.871 13.358H388.139C388.907 13.358 389.483 13.166 389.867 12.782C390.263 12.398 390.461 11.882 390.461 11.234C390.461 10.586 390.269 10.082 389.885 9.722C389.501 9.35 388.919 9.164 388.139 9.164H385.871V13.358Z" fill="white"/>
<path d="M436.404 11.09C436.08 10.466 435.63 9.998 435.054 9.686C434.478 9.362 433.812 9.2 433.056 9.2C432.228 9.2 431.49 9.386 430.842 9.758C430.194 10.13 429.684 10.658 429.312 11.342C428.952 12.026 428.772 12.818 428.772 13.718C428.772 14.618 428.952 15.416 429.312 16.112C429.684 16.796 430.194 17.324 430.842 17.696C431.49 18.068 432.228 18.254 433.056 18.254C434.172 18.254 435.078 17.942 435.774 17.318C436.47 16.694 436.896 15.848 437.052 14.78H432.354V13.142H439.248V14.744C439.116 15.716 438.768 16.61 438.204 17.426C437.652 18.242 436.926 18.896 436.026 19.388C435.138 19.868 434.148 20.108 433.056 20.108C431.88 20.108 430.806 19.838 429.834 19.298C428.862 18.746 428.088 17.984 427.512 17.012C426.948 16.04 426.666 14.942 426.666 13.718C426.666 12.494 426.948 11.396 427.512 10.424C428.088 9.452 428.862 8.696 429.834 8.156C430.818 7.604 431.892 7.328 433.056 7.328C434.388 7.328 435.57 7.658 436.602 8.318C437.646 8.966 438.402 9.89 438.87 11.09H436.404ZM447.77 20L444.89 14.996H443.324V20H441.272V7.49H445.592C446.552 7.49 447.362 7.658 448.022 7.994C448.694 8.33 449.192 8.78 449.516 9.344C449.852 9.908 450.02 10.538 450.02 11.234C450.02 12.05 449.78 12.794 449.3 13.466C448.832 14.126 448.106 14.576 447.122 14.816L450.218 20H447.77ZM443.324 13.358H445.592C446.36 13.358 446.936 13.166 447.32 12.782C447.716 12.398 447.914 11.882 447.914 11.234C447.914 10.586 447.722 10.082 447.338 9.722C446.954 9.35 446.372 9.164 445.592 9.164H443.324V13.358ZM460.187 17.444H454.949L454.049 20H451.907L456.389 7.472H458.765L463.247 20H461.087L460.187 17.444ZM459.611 15.77L457.577 9.956L455.525 15.77H459.611ZM473.944 11.216C473.944 11.852 473.794 12.452 473.494 13.016C473.194 13.58 472.714 14.042 472.054 14.402C471.394 14.75 470.548 14.924 469.516 14.924H467.248V20H465.196V7.49H469.516C470.476 7.49 471.286 7.658 471.946 7.994C472.618 8.318 473.116 8.762 473.44 9.326C473.776 9.89 473.944 10.52 473.944 11.216ZM469.516 13.25C470.296 13.25 470.878 13.076 471.262 12.728C471.646 12.368 471.838 11.864 471.838 11.216C471.838 9.848 471.064 9.164 469.516 9.164H467.248V13.25H469.516ZM485.891 7.49V20H483.839V14.528H477.953V20H475.901V7.49H477.953V12.854H483.839V7.49H485.891ZM490.644 7.49V20H488.592V7.49H490.644ZM492.654 13.718C492.654 12.494 492.936 11.396 493.5 10.424C494.076 9.452 494.85 8.696 495.822 8.156C496.806 7.604 497.88 7.328 499.044 7.328C500.376 7.328 501.558 7.658 502.59 8.318C503.634 8.966 504.39 9.89 504.858 11.09H502.392C502.068 10.43 501.618 9.938 501.042 9.614C500.466 9.29 499.8 9.128 499.044 9.128C498.216 9.128 497.478 9.314 496.83 9.686C496.182 10.058 495.672 10.592 495.3 11.288C494.94 11.984 494.76 12.794 494.76 13.718C494.76 14.642 494.94 15.452 495.3 16.148C495.672 16.844 496.182 17.384 496.83 17.768C497.478 18.14 498.216 18.326 499.044 18.326C499.8 18.326 500.466 18.164 501.042 17.84C501.618 17.516 502.068 17.024 502.392 16.364H504.858C504.39 17.564 503.634 18.488 502.59 19.136C501.558 19.784 500.376 20.108 499.044 20.108C497.868 20.108 496.794 19.838 495.822 19.298C494.85 18.746 494.076 17.984 493.5 17.012C492.936 16.04 492.654 14.942 492.654 13.718ZM516.022 7.49C517.354 7.49 518.518 7.748 519.514 8.264C520.522 8.768 521.296 9.5 521.836 10.46C522.388 11.408 522.664 12.518 522.664 13.79C522.664 15.062 522.388 16.166 521.836 17.102C521.296 18.038 520.522 18.758 519.514 19.262C518.518 19.754 517.354 20 516.022 20H511.936V7.49H516.022ZM516.022 18.326C517.486 18.326 518.608 17.93 519.388 17.138C520.168 16.346 520.558 15.23 520.558 13.79C520.558 12.338 520.168 11.204 519.388 10.388C518.608 9.572 517.486 9.164 516.022 9.164H513.988V18.326H516.022ZM526.75 9.146V12.818H531.07V14.492H526.75V18.326H531.61V20H524.698V7.472H531.61V9.146H526.75ZM538.259 20.126C537.419 20.126 536.663 19.982 535.991 19.694C535.319 19.394 534.791 18.974 534.407 18.434C534.023 17.894 533.831 17.264 533.831 16.544H536.027C536.075 17.084 536.285 17.528 536.657 17.876C537.041 18.224 537.575 18.398 538.259 18.398C538.967 18.398 539.519 18.23 539.915 17.894C540.311 17.546 540.509 17.102 540.509 16.562C540.509 16.142 540.383 15.8 540.131 15.536C539.891 15.272 539.585 15.068 539.213 14.924C538.853 14.78 538.349 14.624 537.701 14.456C536.885 14.24 536.219 14.024 535.703 13.808C535.199 13.58 534.767 13.232 534.407 12.764C534.047 12.296 533.867 11.672 533.867 10.892C533.867 10.172 534.047 9.542 534.407 9.002C534.767 8.462 535.271 8.048 535.919 7.76C536.567 7.472 537.317 7.328 538.169 7.328C539.381 7.328 540.371 7.634 541.139 8.246C541.919 8.846 542.351 9.674 542.435 10.73H540.167C540.131 10.274 539.915 9.884 539.519 9.56C539.123 9.236 538.601 9.074 537.953 9.074C537.365 9.074 536.885 9.224 536.513 9.524C536.141 9.824 535.955 10.256 535.955 10.82C535.955 11.204 536.069 11.522 536.297 11.774C536.537 12.014 536.837 12.206 537.197 12.35C537.557 12.494 538.049 12.65 538.673 12.818C539.501 13.046 540.173 13.274 540.689 13.502C541.217 13.73 541.661 14.084 542.021 14.564C542.393 15.032 542.579 15.662 542.579 16.454C542.579 17.09 542.405 17.69 542.057 18.254C541.721 18.818 541.223 19.274 540.563 19.622C539.915 19.958 539.147 20.126 538.259 20.126ZM547.052 7.49V20H545V7.49H547.052ZM558.8 11.09C558.476 10.466 558.026 9.998 557.45 9.686C556.874 9.362 556.208 9.2 555.452 9.2C554.624 9.2 553.886 9.386 553.238 9.758C552.59 10.13 552.08 10.658 551.708 11.342C551.348 12.026 551.168 12.818 551.168 13.718C551.168 14.618 551.348 15.416 551.708 16.112C552.08 16.796 552.59 17.324 553.238 17.696C553.886 18.068 554.624 18.254 555.452 18.254C556.568 18.254 557.474 17.942 558.17 17.318C558.866 16.694 559.292 15.848 559.448 14.78H554.75V13.142H561.644V14.744C561.512 15.716 561.164 16.61 560.6 17.426C560.048 18.242 559.322 18.896 558.422 19.388C557.534 19.868 556.544 20.108 555.452 20.108C554.276 20.108 553.202 19.838 552.23 19.298C551.258 18.746 550.484 17.984 549.908 17.012C549.344 16.04 549.062 14.942 549.062 13.718C549.062 12.494 549.344 11.396 549.908 10.424C550.484 9.452 551.258 8.696 552.23 8.156C553.214 7.604 554.288 7.328 555.452 7.328C556.784 7.328 557.966 7.658 558.998 8.318C560.042 8.966 560.798 9.89 561.266 11.09H558.8ZM573.946 20H571.894L565.72 10.658V20H563.668V7.472H565.72L571.894 16.796V7.472H573.946V20Z" fill="white"/>
<path d="M611.402 9.146V12.818H615.722V14.492H611.402V18.326H616.262V20H609.35V7.472H616.262V9.146H611.402ZM622.875 7.49C624.207 7.49 625.371 7.748 626.367 8.264C627.375 8.768 628.149 9.5 628.689 10.46C629.241 11.408 629.517 12.518 629.517 13.79C629.517 15.062 629.241 16.166 628.689 17.102C628.149 18.038 627.375 18.758 626.367 19.262C625.371 19.754 624.207 20 622.875 20H618.789V7.49H622.875ZM622.875 18.326C624.339 18.326 625.461 17.93 626.241 17.138C627.021 16.346 627.411 15.23 627.411 13.79C627.411 12.338 627.021 11.204 626.241 10.388C625.461 9.572 624.339 9.164 622.875 9.164H620.841V18.326H622.875ZM633.603 7.49V20H631.551V7.49H633.603ZM644.379 7.49V9.164H641.049V20H638.997V9.164H635.649V7.49H644.379ZM652.163 20.126C650.999 20.126 649.925 19.856 648.941 19.316C647.969 18.764 647.195 18.002 646.619 17.03C646.055 16.046 645.773 14.942 645.773 13.718C645.773 12.494 646.055 11.396 646.619 10.424C647.195 9.452 647.969 8.696 648.941 8.156C649.925 7.604 650.999 7.328 652.163 7.328C653.339 7.328 654.413 7.604 655.385 8.156C656.369 8.696 657.143 9.452 657.707 10.424C658.271 11.396 658.553 12.494 658.553 13.718C658.553 14.942 658.271 16.046 657.707 17.03C657.143 18.002 656.369 18.764 655.385 19.316C654.413 19.856 653.339 20.126 652.163 20.126ZM652.163 18.344C652.991 18.344 653.729 18.158 654.377 17.786C655.025 17.402 655.529 16.862 655.889 16.166C656.261 15.458 656.447 14.642 656.447 13.718C656.447 12.794 656.261 11.984 655.889 11.288C655.529 10.592 655.025 10.058 654.377 9.686C653.729 9.314 652.991 9.128 652.163 9.128C651.335 9.128 650.597 9.314 649.949 9.686C649.301 10.058 648.791 10.592 648.419 11.288C648.059 11.984 647.879 12.794 647.879 13.718C647.879 14.642 648.059 15.458 648.419 16.166C648.791 16.862 649.301 17.402 649.949 17.786C650.597 18.158 651.335 18.344 652.163 18.344ZM667.071 20L664.191 14.996H662.625V20H660.573V7.49H664.893C665.853 7.49 666.663 7.658 667.323 7.994C667.995 8.33 668.493 8.78 668.817 9.344C669.153 9.908 669.321 10.538 669.321 11.234C669.321 12.05 669.081 12.794 668.601 13.466C668.133 14.126 667.407 14.576 666.423 14.816L669.519 20H667.071ZM662.625 13.358H664.893C665.661 13.358 666.237 13.166 666.621 12.782C667.017 12.398 667.215 11.882 667.215 11.234C667.215 10.586 667.023 10.082 666.639 9.722C666.255 9.35 665.673 9.164 664.893 9.164H662.625V13.358Z" fill="white"/>
<line x1="700.5" y1="23.5" x2="700.5" y2="3.5" stroke="#FF0000" stroke-width="5"/>
<line x1="706.5" y1="23.5" x2="706.5" y2="3.5" stroke="#FF0000" stroke-width="5"/>
<line x1="726" y1="23.5" x2="726" y2="3.5" stroke="#FF0000" stroke-width="4"/>
<line x1="719" y1="23.5" x2="719" y2="3.5" stroke="#FF0000" stroke-width="2"/>
<path d="M734 23.5V13.5V3.5" stroke="#FF0000" stroke-opacity="0.8" stroke-width="7"/>
<path d="M743 23.5V13.5V3.5" stroke="#FF0000" stroke-opacity="0.5" stroke-width="7"/>
<line x1="713.5" y1="23.5" x2="713.5" y2="3.5" stroke="#FF0000" stroke-width="5"/>
</svg>
