<svg width="815" height="229" viewBox="0 0 815 229" fill="none" xmlns="http://www.w3.org/2000/svg">
<path d="M475.894 139.631C476.202 138.549 477.749 136.07 479.539 133.968C481.235 131.976 482.102 129.237 483.424 126.515C485.64 121.95 485.057 117.902 485.37 114.474C485.647 111.429 486.763 109.038 487.234 106.472C487.826 103.246 488.32 99.8746 489.329 96.3768C490.234 93.2383 490.65 90.7023 491.039 88.3743C491.806 83.7879 494.22 80.6166 496.161 76.0281C497.467 72.9411 498.107 69.7384 500.354 61.5169C501.455 57.4872 503.076 54.8148 504.474 52.7944C505.555 51.4032 506.189 50.1494 506.343 49.2196C506.497 48.7512 506.804 48.2898 507.121 47.3484" stroke="#FF0000" stroke-width="10" stroke-linecap="round"/>
<path d="M459.116 59.0001C467.883 57.1545 476.649 55.3089 488.856 52.9738C501.062 50.6388 516.443 47.8703 524.596 46.3673C534.188 44.5992 536.008 43.7782 537.952 42.3055C540.036 40.7258 542.067 40.3573 543.934 39.8935C546.385 39.2846 549.524 38.8099 553.09 37.9523C555.872 37.4117 558.226 36.7872 559.699 36.3211C560.402 36.1626 561.018 36.1626 561.651 36.1626" stroke="#FF0000" stroke-width="10" stroke-linecap="round"/>
<path d="M461.446 105.607C468.521 103.915 475.596 102.224 482.009 100.429C494.039 97.0633 500.433 94.7339 501.906 94.5008C504.471 94.095 506.646 93.1819 508.899 92.5597C509.908 92.2497 510.845 91.9375 512.39 91.7044C513.474 91.6252 515.165 91.6252 516.909 91.6252" stroke="#FF0000" stroke-width="10" stroke-linecap="round"/>
<path d="M170.4 135.84C162.4 135.84 155.04 133.96 148.32 130.2C141.68 126.44 136.4 121.24 132.48 114.6C128.56 107.96 126.6 100.48 126.6 92.16C126.6 83.84 128.56 76.36 132.48 69.72C136.4 63.08 141.68 57.92 148.32 54.24C155.04 50.48 162.4 48.6 170.4 48.6C178.4 48.6 185.72 50.48 192.36 54.24C199 57.92 204.24 63.08 208.08 69.72C212 76.36 213.96 83.84 213.96 92.16C213.96 100.48 212 107.96 208.08 114.6C204.24 121.24 198.96 126.44 192.24 130.2C185.6 133.96 178.32 135.84 170.4 135.84ZM170.4 111C175.68 111 179.76 109.32 182.64 105.96C185.52 102.52 186.96 97.92 186.96 92.16C186.96 86.32 185.52 81.72 182.64 78.36C179.76 74.92 175.68 73.2 170.4 73.2C165.04 73.2 160.92 74.92 158.04 78.36C155.16 81.72 153.72 86.32 153.72 92.16C153.72 97.92 155.16 102.52 158.04 105.96C160.92 109.32 165.04 111 170.4 111ZM266.29 135L250.33 104.52H250.21V135H223.57V50.04H263.17C270.05 50.04 275.93 51.28 280.81 53.76C285.69 56.16 289.33 59.48 291.73 63.72C294.21 67.88 295.45 72.6 295.45 77.88C295.45 83.56 293.85 88.6 290.65 93C287.53 97.4 283.01 100.56 277.09 102.48L295.57 135H266.29ZM250.21 86.76H260.77C263.33 86.76 265.25 86.2 266.53 85.08C267.81 83.88 268.45 82.04 268.45 79.56C268.45 77.32 267.77 75.56 266.41 74.28C265.13 73 263.25 72.36 260.77 72.36H250.21V86.76ZM370.681 50.04V71.16H348.121V135H321.481V71.16H299.161V50.04H370.681ZM419.306 135.84C411.306 135.84 403.946 133.96 397.226 130.2C390.586 126.44 385.306 121.24 381.386 114.6C377.466 107.96 375.506 100.48 375.506 92.16C375.506 83.84 377.466 76.36 381.386 69.72C385.306 63.08 390.586 57.92 397.226 54.24C403.946 50.48 411.306 48.6 419.306 48.6C427.306 48.6 434.626 50.48 441.266 54.24C447.906 57.92 453.146 63.08 456.986 69.72C460.906 76.36 462.866 83.84 462.866 92.16C462.866 100.48 460.906 107.96 456.986 114.6C453.146 121.24 447.866 126.44 441.146 130.2C434.506 133.96 427.226 135.84 419.306 135.84ZM419.306 111C424.586 111 428.666 109.32 431.546 105.96C434.426 102.52 435.866 97.92 435.866 92.16C435.866 86.32 434.426 81.72 431.546 78.36C428.666 74.92 424.586 73.2 419.306 73.2C413.946 73.2 409.826 74.92 406.946 78.36C404.066 81.72 402.626 86.32 402.626 92.16C402.626 97.92 404.066 102.52 406.946 105.96C409.826 109.32 413.946 111 419.306 111Z" fill="white"/>
<path d="M573.4 135.84C565.4 135.84 558.04 133.96 551.32 130.2C544.68 126.44 539.4 121.24 535.48 114.6C531.56 107.96 529.6 100.48 529.6 92.16C529.6 83.84 531.56 76.36 535.48 69.72C539.4 63.08 544.68 57.92 551.32 54.24C558.04 50.48 565.4 48.6 573.4 48.6C581.4 48.6 588.72 50.48 595.36 54.24C602 57.92 607.24 63.08 611.08 69.72C615 76.36 616.96 83.84 616.96 92.16C616.96 100.48 615 107.96 611.08 114.6C607.24 121.24 601.96 126.44 595.24 130.2C588.6 133.96 581.32 135.84 573.4 135.84ZM573.4 111C578.68 111 582.76 109.32 585.64 105.96C588.52 102.52 589.96 97.92 589.96 92.16C589.96 86.32 588.52 81.72 585.64 78.36C582.76 74.92 578.68 73.2 573.4 73.2C568.04 73.2 563.92 74.92 561.04 78.36C558.16 81.72 556.72 86.32 556.72 92.16C556.72 97.92 558.16 102.52 561.04 105.96C563.92 109.32 568.04 111 573.4 111ZM653.21 114.84H678.89V135H626.57V50.04H653.21V114.84ZM713.913 50.04V135H687.273V50.04H713.913ZM767.345 135.84C759.345 135.84 751.985 133.96 745.265 130.2C738.625 126.44 733.345 121.24 729.425 114.6C725.505 107.96 723.545 100.48 723.545 92.16C723.545 83.84 725.505 76.36 729.425 69.72C733.345 63.08 738.625 57.92 745.265 54.24C751.985 50.48 759.345 48.6 767.345 48.6C775.345 48.6 782.665 50.48 789.305 54.24C795.945 57.92 801.185 63.08 805.025 69.72C808.945 76.36 810.905 83.84 810.905 92.16C810.905 100.48 808.945 107.96 805.025 114.6C801.185 121.24 795.905 126.44 789.185 130.2C782.545 133.96 775.265 135.84 767.345 135.84ZM767.345 111C772.625 111 776.705 109.32 779.585 105.96C782.465 102.52 783.905 97.92 783.905 92.16C783.905 86.32 782.465 81.72 779.585 78.36C776.705 74.92 772.625 73.2 767.345 73.2C761.985 73.2 757.865 74.92 754.985 78.36C752.105 81.72 750.665 86.32 750.665 92.16C750.665 97.92 752.105 102.52 754.985 105.96C757.865 109.32 761.985 111 767.345 111Z" fill="white"/>
<rect width="222" height="30" transform="translate(585 145.189) rotate(-13.8623)" fill="#FF0000"/>
<path d="M602.045 150.001L605.099 162.374L601.219 163.331L598.166 150.959L602.045 150.001ZM618.717 159.013L614.837 159.971L609.195 154.763L610.73 160.984L606.851 161.942L603.798 149.569L607.677 148.611L613.345 153.924L611.784 147.598L615.664 146.641L618.717 159.013ZM627.133 143.81L627.892 146.886L624.606 147.697L626.901 156.994L623.021 157.951L620.727 148.654L617.476 149.456L616.717 146.38L627.133 143.81ZM637.298 154.558C636.133 154.845 634.993 154.836 633.879 154.53C632.777 154.221 631.822 153.653 631.012 152.827C630.203 152.001 629.648 150.982 629.349 149.771C629.05 148.559 629.067 147.399 629.399 146.291C629.731 145.184 630.315 144.242 631.15 143.468C631.993 142.679 632.997 142.14 634.162 141.853C635.327 141.565 636.461 141.576 637.563 141.885C638.662 142.182 639.611 142.745 640.409 143.574C641.218 144.401 641.773 145.419 642.072 146.631C642.371 147.843 642.354 149.003 642.022 150.11C641.701 151.215 641.119 152.162 640.276 152.952C639.444 153.738 638.451 154.273 637.298 154.558ZM636.405 150.94C637.174 150.751 637.708 150.359 638.006 149.766C638.302 149.162 638.347 148.44 638.14 147.601C637.93 146.751 637.555 146.133 637.015 145.747C636.471 145.35 635.815 145.246 635.047 145.435C634.266 145.628 633.728 146.027 633.432 146.631C633.133 147.224 633.089 147.946 633.299 148.796C633.506 149.635 633.881 150.253 634.424 150.651C634.964 151.036 635.624 151.133 636.405 150.94ZM654.643 137.021L655.402 140.097L652.117 140.908L654.411 150.205L650.532 151.162L648.237 141.865L644.987 142.667L644.228 139.591L654.643 137.021ZM664.808 147.769C663.643 148.056 662.504 148.047 661.39 147.741C660.288 147.432 659.332 146.864 658.523 146.038C657.713 145.212 657.159 144.193 656.86 142.982C656.561 141.77 656.578 140.61 656.91 139.502C657.242 138.395 657.825 137.453 658.66 136.679C659.504 135.89 660.508 135.351 661.673 135.064C662.838 134.776 663.972 134.787 665.074 135.096C666.173 135.393 667.122 135.956 667.919 136.785C668.729 137.612 669.283 138.63 669.582 139.842C669.881 141.054 669.865 142.214 669.532 143.321C669.212 144.426 668.63 145.373 667.786 146.163C666.954 146.949 665.962 147.484 664.808 147.769ZM663.916 144.151C664.685 143.962 665.218 143.57 665.517 142.977C665.813 142.373 665.857 141.651 665.65 140.812C665.44 139.962 665.065 139.344 664.525 138.958C663.982 138.561 663.326 138.457 662.557 138.646C661.777 138.839 661.238 139.238 660.943 139.842C660.644 140.435 660.6 141.157 660.809 142.007C661.016 142.846 661.391 143.464 661.935 143.862C662.475 144.247 663.135 144.344 663.916 144.151ZM687.309 128.96L690.363 141.333L686.501 142.286L684.978 136.117L684.596 142.756L681.275 143.575L677.848 137.876L679.371 144.045L675.491 145.003L672.438 132.63L677.191 131.457L681.75 138.211L682.574 130.129L687.309 128.96ZM700.944 125.595L698.631 135.306L699.558 139.064L695.678 140.021L694.751 136.264L688.186 128.744L692.625 127.648L695.682 131.547L696.575 126.673L700.944 125.595ZM713.428 122.514L715.399 130.501C715.764 131.98 715.651 133.201 715.06 134.163C714.478 135.11 713.488 135.756 712.09 136.101C710.587 136.472 709.291 136.353 708.201 135.744C707.112 135.135 706.372 134.039 705.981 132.454L709.808 131.51C709.931 132.011 710.101 132.346 710.316 132.515C710.527 132.673 710.773 132.718 711.053 132.649C711.286 132.591 711.448 132.471 711.539 132.288C711.629 132.105 711.629 131.827 711.537 131.454L709.566 123.468L713.428 122.514ZM724.216 133.108C723.051 133.396 721.911 133.387 720.797 133.081C719.695 132.772 718.739 132.204 717.93 131.378C717.12 130.552 716.566 129.533 716.267 128.321C715.968 127.11 715.985 125.95 716.317 124.842C716.649 123.734 717.233 122.793 718.067 122.018C718.911 121.229 719.915 120.691 721.08 120.404C722.245 120.116 723.379 120.127 724.481 120.436C725.58 120.733 726.529 121.296 727.327 122.125C728.136 122.951 728.691 123.97 728.99 125.182C729.289 126.393 729.272 127.553 728.94 128.661C728.619 129.766 728.037 130.713 727.194 131.502C726.362 132.288 725.369 132.824 724.216 133.108ZM723.323 129.491C724.092 129.301 724.626 128.91 724.924 128.317C725.22 127.713 725.264 126.991 725.057 126.152C724.848 125.302 724.473 124.683 723.932 124.298C723.389 123.9 722.733 123.796 721.964 123.986C721.184 124.179 720.646 124.577 720.35 125.182C720.051 125.775 720.007 126.496 720.217 127.347C720.424 128.186 720.799 128.804 721.342 129.201C721.882 129.587 722.542 129.684 723.323 129.491ZM732.668 117.767L734.388 124.739C734.529 125.31 734.764 125.734 735.092 126.012C735.429 126.275 735.877 126.337 736.436 126.199C736.995 126.061 737.368 125.796 737.556 125.404C737.74 125 737.762 124.512 737.621 123.942L735.901 116.969L739.763 116.016L741.483 122.988C741.774 124.165 741.778 125.233 741.496 126.193C741.21 127.141 740.694 127.929 739.947 128.559C739.2 129.188 738.303 129.632 737.254 129.891C736.205 130.15 735.222 130.17 734.303 129.952C733.395 129.731 732.612 129.263 731.954 128.548C731.295 127.833 730.819 126.881 730.526 125.692L728.805 118.72L732.668 117.767ZM750.711 126.44L747.291 122.575L747.274 122.579L748.369 127.018L744.489 127.976L741.436 115.603L747.203 114.18C748.205 113.932 749.106 113.902 749.906 114.087C750.703 114.261 751.352 114.614 751.854 115.145C752.365 115.662 752.715 116.305 752.905 117.074C753.109 117.901 753.057 118.692 752.749 119.448C752.453 120.201 751.908 120.824 751.115 121.316L754.975 125.388L750.711 126.44ZM746.635 119.993L748.173 119.613C748.546 119.521 748.805 119.371 748.952 119.162C749.095 118.941 749.122 118.65 749.033 118.289C748.952 117.963 748.79 117.731 748.546 117.593C748.314 117.453 748.017 117.427 747.656 117.516L746.118 117.896L746.635 119.993ZM768.063 122.158L764.183 123.116L758.541 117.908L760.076 124.129L756.197 125.086L753.143 112.714L757.023 111.756L762.691 117.069L761.13 110.743L765.009 109.785L768.063 122.158ZM777.288 117.898L773.164 118.916L773.014 120.936L768.942 121.941L770.415 108.451L774.888 107.347L782.45 118.608L778.361 119.617L777.288 117.898ZM775.624 115.212L773.656 112.045L773.387 115.764L775.624 115.212ZM792.162 103.085L789.849 112.796L790.777 116.553L786.897 117.51L785.97 113.753L779.405 106.233L783.844 105.137L786.901 109.037L787.793 104.163L792.162 103.085Z" fill="white"/>
<path d="M10 226.469L45.7419 85.4686M64.5 11.4686L45.7419 85.4686M45.7419 85.4686C67.3391 56.4272 121 21.9686 162 11.4686C203 0.968608 198.321 48.1841 156 107.969C122.181 155.477 64.5 159.969 52 161.469C39.5 162.969 99 102.469 99 102.469" stroke="#FF0000" stroke-width="20"/>
</svg>
